<svg xmlns="http://www.w3.org/2000/svg" viewBox="0 0 100 100"><defs><radialGradient id="a" cx="50%" cy="50%" r="55%"><stop offset="0%" stop-color="#18b4e6"/><stop offset="100%" stop-color="#0094c2"/></radialGradient></defs><circle cx="50" cy="50" r="48" fill="url(#a)"/><path fill="#fc3" d="M25.68 23.951a.93.93 0 0 1 .855-.551h26.467a.95.95 0 0 1 .798.437l20.349 32.3a.931.931 0 0 1-.779 1.463H58.797L71.66 82.775a.988.988 0 0 1-.874 1.425h-5.7a.95.95 0 0 1-.703-.304L31 47.815a.95.95 0 0 1 .703-1.615h12.806L25.832 24.958a.93.93 0 0 1-.152-1.007"/></svg>
